<?xml version="1.0" standalone="no"?>
<!DOCTYPE svg PUBLIC "-//W3C//DTD SVG 20010904//EN"
 "http://www.w3.org/TR/2001/REC-SVG-20010904/DTD/svg10.dtd">
<svg version="1.0" xmlns="http://www.w3.org/2000/svg"
 width="512.000000pt" height="512.000000pt" viewBox="0 0 512.000000 512.000000"
 preserveAspectRatio="xMidYMid meet">

<g transform="translate(0.000000,512.000000) scale(0.100000,-0.100000)"
fill="#000000" stroke="none">
<path d="M677 5109 c-90 -13 -218 -61 -302 -114 -193 -120 -332 -333 -365
-560 -13 -96 -13 -3654 0 -3750 51 -351 333 -629 686 -675 53 -7 690 -10 1919
-8 1686 3 1845 4 1895 20 110 33 170 60 243 108 172 112 278 260 345 480 16
50 17 209 20 1895 2 1229 -1 1866 -8 1919 -46 353 -324 635 -675 686 -86 12
-3673 12 -3758 -1z m2184 -715 c127 -21 313 -84 427 -144 378 -199 646 -545
750 -969 l26 -106 3 -537 c4 -502 3 -545 -16 -655 -87 -516 -451 -947 -946
-1123 -49 -17 -130 -41 -180 -53 -87 -20 -116 -21 -917 -24 l-828 -4 0 1816 0
1815 793 0 c677 0 807 -2 888 -16z"/>
<path d="M3305 3613 c-71 -95 -262 -291 -380 -390 -345 -291 -792 -505 -1217
-583 -62 -11 -123 -23 -135 -26 l-23 -4 0 -730 0 -730 553 0 c341 0 586 4 642
11 252 31 481 144 653 323 69 72 170 204 160 210 -1 1 -45 12 -97 24 -51 12
-127 37 -169 54 -85 35 -230 129 -279 180 l-33 34 129 128 128 128 67 -51
c151 -115 256 -141 359 -89 l37 18 0 436 c0 465 -7 577 -46 713 -42 147 -86
225 -185 324 -48 48 -93 87 -101 87 -7 -1 -35 -31 -63 -67z m-101 -609 c65
-22 148 -100 176 -166 31 -70 32 -174 3 -239 -28 -63 -86 -125 -147 -157 -44
-23 -63 -27 -136 -26 -68 0 -93 4 -128 22 -64 34 -118 87 -146 145 -36 71 -37
189 -2 262 28 61 110 138 169 158 56 20 153 21 211 1z"/>
</g>
</svg>
